<?xml version="1.0" encoding="UTF-8" standalone="no"?>
<svg
   version="1.0"
   width="188.49312pt"
   height="188.52609pt"
   viewBox="0 0 188.49312 188.52609"
   preserveAspectRatio="xMidYMid meet"
   id="svg32"
   sodipodi:docname="fe11a4eb69247c7889ad0ba973a6f2fa.svg"
   xmlns:inkscape="http://www.inkscape.org/namespaces/inkscape"
   xmlns:sodipodi="http://sodipodi.sourceforge.net/DTD/sodipodi-0.dtd"
   xmlns="http://www.w3.org/2000/svg"
   xmlns:svg="http://www.w3.org/2000/svg">
  <defs
     id="defs36" />
  <sodipodi:namedview
     id="namedview34"
     pagecolor="#ffffff"
     bordercolor="#666666"
     borderopacity="1.0"
     inkscape:pageshadow="2"
     inkscape:pageopacity="0.0"
     inkscape:pagecheckerboard="0"
     inkscape:document-units="pt" />
  <metadata
     id="metadata2">
Created by potrace 1.10, written by Peter Selinger 2001-2011
</metadata>
  <g
     transform="matrix(0.1,0,0,-0.1,-5.8,194.7)"
     fill="#000000"
     stroke="none"
     id="g30">
    <path
       d="m 958,1943 c 23,-2 61,-2 85,0 23,2 4,4 -43,4 -47,0 -66,-2 -42,-4 z"
       id="path4" />
    <path
       d="m 853,1933 c 9,-2 25,-2 35,0 9,3 1,5 -18,5 -19,0 -27,-2 -17,-5 z"
       id="path6" />
    <path
       d="m 1113,1933 c 9,-2 25,-2 35,0 9,3 1,5 -18,5 -19,0 -27,-2 -17,-5 z"
       id="path8" />
    <path
       d="m 578,1849 c -21,-11 -38,-22 -38,-24 0,-5 79,32 89,41 12,11 -18,1 -51,-17 z"
       id="path10" />
    <path
       d="m 1371,1867 c 2,-2 36,-20 74,-41 39,-20 61,-29 50,-20 -22,17 -110,64 -121,64 -4,0 -5,-1 -3,-3 z"
       id="path12" />
    <path
       d="M 845,1835 C 531,1777 271,1534 189,1220 163,1120 158,941 179,845 251,518 505,263 829,194 c 36,-7 116,-14 177,-14 394,0 730,274 815,665 17,77 17,263 0,340 -35,157 -130,324 -250,437 -192,182 -465,262 -726,213 z m 285,-17 c 80,-14 181,-45 210,-65 13,-9 32,-18 42,-18 10,-1 29,-11 41,-23 13,-12 27,-22 33,-22 34,-1 244,-218 223,-231 -7,-4 -4,-9 5,-12 9,-4 21,-17 27,-29 5,-13 21,-43 33,-68 13,-25 20,-46 15,-48 -5,-2 -3,-10 5,-17 20,-20 43,-137 45,-225 3,-148 2,-161 -31,-229 -43,-89 -44,-92 -13,-46 44,63 46,63 22,-7 -12,-36 -25,-64 -28,-62 -7,4 -22,-34 -20,-48 3,-25 -21,-58 -42,-58 -20,0 -23,-4 -20,-23 3,-17 -11,-40 -56,-91 -68,-77 -96,-100 -111,-91 -6,4 -7,-1 -3,-10 9,-26 -44,-64 -90,-65 -32,0 -37,-3 -33,-18 5,-14 -8,-23 -72,-47 -42,-16 -81,-29 -86,-27 -4,1 -14,-2 -21,-8 -8,-6 -34,-12 -59,-13 -25,-1 -46,-5 -46,-9 0,-5 -46,-8 -101,-8 -113,0 -284,33 -276,53 3,7 -7,12 -24,13 -44,2 -120,54 -155,107 -46,69 -51,71 -13,3 35,-64 27,-65 -41,-3 -25,23 -39,44 -36,53 3,8 -1,14 -8,14 -32,0 -138,128 -152,183 -3,15 -12,27 -18,27 -14,0 -41,71 -34,91 2,7 -3,20 -12,29 -22,22 -44,153 -38,229 2,33 1,62 -4,63 -11,4 16,151 40,219 43,119 114,229 209,321 58,55 122,100 134,92 5,-3 9,2 9,10 0,19 49,45 154,80 124,43 272,55 396,34 z"
       id="path14" />
    <path
       d="m 958,1563 c 23,-2 61,-2 85,0 23,2 4,4 -43,4 -47,0 -66,-2 -42,-4 z"
       id="path16" />
    <path
       d="m 1543,1353 c -52,-7 -57,-21 -56,-166 1,-192 1,-192 21,-212 17,-18 16,-20 -7,-43 -19,-19 -22,-31 -18,-63 8,-58 21,-69 82,-69 50,0 54,2 64,31 13,37 14,79 3,96 -4,7 -19,16 -32,22 -17,7 -20,10 -8,10 30,1 36,33 40,200 3,161 3,163 -21,182 -13,10 -26,18 -30,17 -3,0 -20,-3 -38,-5 z m 73,-54 c -3,-17 -6,-96 -6,-175 V 980 h -50 -50 v 159 c 0,88 -3,166 -6,175 -5,14 3,16 56,16 h 63 z m 4,-408 c 0,-63 -6,-71 -60,-71 -45,0 -48,2 -54,31 -3,17 -3,42 0,55 6,22 11,24 60,24 h 54 z"
       id="path18" />
    <path
       d="m 473,1211 c -51,-9 -67,-21 -101,-80 -23,-39 -27,-57 -27,-121 1,-117 50,-190 143,-211 125,-28 236,61 243,194 2,26 6,47 9,47 4,0 17,-12 31,-26 13,-15 49,-38 79,-51 46,-21 52,-26 37,-35 -10,-5 -36,-7 -58,-3 -31,5 -45,3 -60,-11 -19,-17 -26,-68 -11,-91 11,-18 108,-35 151,-27 87,15 151,84 151,160 0,33 -52,104 -76,104 -8,0 -14,5 -14,11 0,6 -7,9 -15,6 -8,-4 -17,-2 -21,4 -10,17 4,22 35,11 27,-10 33,-8 51,15 20,26 26,59 12,79 -22,35 -169,42 -218,10 -31,-21 -64,-74 -64,-103 0,-35 -23,-23 -40,22 -30,79 -122,116 -237,96 z m 149,-37 c 60,-31 94,-106 85,-191 -11,-108 -70,-163 -172,-163 -72,0 -116,24 -149,80 -29,49 -29,161 -1,209 48,82 149,109 237,65 z m 381,10 c 19,-6 22,-35 7,-64 -9,-16 -15,-18 -36,-10 -38,15 -80,12 -94,-6 -18,-21 0,-37 67,-59 63,-20 83,-45 83,-103 0,-86 -61,-127 -179,-120 -39,2 -75,8 -79,13 -5,6 -6,24 -1,41 l 9,31 68,-5 c 54,-3 70,-1 81,12 19,23 7,42 -36,56 -82,26 -102,41 -114,81 -13,41 -1,86 27,110 41,34 125,44 197,23 z"
       id="path20" />
    <path
       d="m 495,1097 c -26,-22 -29,-30 -29,-90 0,-90 37,-131 97,-108 45,17 61,146 24,194 -22,29 -61,31 -92,4 z m 75,-22 c 15,-19 15,-112 -1,-131 -16,-19 -49,-17 -65,4 -17,21 -18,83 -2,117 13,28 48,34 68,10 z"
       id="path22" />
    <path
       d="m 1092,1198 c -5,-7 -12,-67 -14,-133 -4,-100 -2,-127 13,-160 35,-79 85,-108 189,-108 106,0 148,15 155,56 8,47 11,207 4,207 -4,0 -7,28 -8,62 -1,33 -6,67 -12,75 -14,16 -91,17 -107,1 -7,-7 -12,-39 -12,-75 0,-35 -3,-63 -7,-63 -5,0 -6,-27 -5,-60 3,-50 1,-61 -14,-67 -11,-4 -23,1 -35,16 -15,18 -18,40 -17,126 0,70 -4,110 -12,120 -15,19 -103,20 -118,3 z m 110,-139 c 3,-148 9,-159 80,-159 h 39 l -3,145 -3,145 h 53 52 V 1015 841 l -37,-10 c -58,-16 -170,-13 -209,5 -57,27 -74,78 -74,227 v 127 h 49 49 z"
       id="path24" />
    <path
       d="m 1675,662 c -12,-9 -16,-44 -4,-36 5,3 14,14 19,25 11,19 3,25 -15,11 z"
       id="path26" />
    <path
       d="M 464,1779 C 299,1665 160,1477 101,1290 70,1191 58,1106 58,990 59,569 346,199 758,89 858,63 1032,54 1140,69 c 334,49 618,277 740,593 95,246 82,526 -36,759 -66,131 -193,282 -294,348 l -35,22 35,-28 c 153,-123 260,-266 320,-425 C 2063,818 1763,247 1224,110 763,-8 272,260 122,711 c -129,391 6,821 328,1047 71,50 87,62 79,62 -3,0 -32,-18 -65,-41 z"
       id="path28" />
  </g>
</svg>
