<?xml version="1.0" encoding="UTF-8" standalone="no"?>
<svg
   id="svg"
   version="1.1"
   width="400"
   height="400"
   viewBox="0, 0, 400,400"
   sodipodi:docname="92e61a3934063081549c0917626c2694.svg"
   xmlns:inkscape="http://www.inkscape.org/namespaces/inkscape"
   xmlns:sodipodi="http://sodipodi.sourceforge.net/DTD/sodipodi-0.dtd"
   xmlns="http://www.w3.org/2000/svg"
   xmlns:svg="http://www.w3.org/2000/svg">
  <defs
     id="defs11" />
  <sodipodi:namedview
     id="namedview9"
     pagecolor="#ffffff"
     bordercolor="#666666"
     borderopacity="1.0"
     inkscape:pageshadow="2"
     inkscape:pageopacity="0.0"
     inkscape:pagecheckerboard="0" />
  <g
     id="svgg">
    <path
       id="path0"
       d="M193.280 57.280 C 193.016 57.544,192.814 58.129,192.832 58.580 C 192.849 59.031,192.954 59.175,193.065 58.900 C 193.176 58.625,193.442 58.400,193.657 58.400 C 193.872 58.400,193.918 58.625,193.759 58.900 C 193.592 59.190,193.624 59.260,193.836 59.067 C 194.036 58.883,194.222 58.568,194.250 58.367 C 194.278 58.165,194.322 57.833,194.350 57.629 C 194.378 57.425,194.715 57.176,195.100 57.076 C 195.565 56.954,195.458 56.877,194.780 56.846 C 194.219 56.821,193.544 57.016,193.280 57.280 M198.400 57.138 C 198.400 57.418,198.232 57.544,198.028 57.417 C 197.442 57.055,197.056 58.017,197.579 58.535 C 197.936 58.889,197.990 58.849,197.806 58.367 C 197.651 57.957,197.785 57.733,198.189 57.733 C 198.633 57.733,198.738 57.966,198.553 58.548 C 198.305 59.328,198.324 59.333,199.004 58.653 C 199.663 57.994,199.667 57.895,199.057 57.286 C 198.602 56.831,198.400 56.785,198.400 57.138 M228.400 87.800 C 228.400 89.167,228.438 89.200,230.000 89.200 C 231.562 89.200,231.600 89.167,231.600 87.800 C 231.600 86.433,231.562 86.400,230.000 86.400 C 228.438 86.400,228.400 86.433,228.400 87.800 M215.200 89.200 C 215.200 90.762,215.233 90.800,216.600 90.800 C 217.967 90.800,218.000 90.762,218.000 89.200 C 218.000 87.638,217.967 87.600,216.600 87.600 C 215.233 87.600,215.200 87.638,215.200 89.200 M264.400 98.200 C 264.400 99.567,264.438 99.600,266.000 99.600 C 267.562 99.600,267.600 99.567,267.600 98.200 C 267.600 96.833,267.562 96.800,266.000 96.800 C 264.438 96.800,264.400 96.833,264.400 98.200 M219.600 105.800 C 219.600 107.133,219.667 107.200,221.000 107.200 C 222.333 107.200,222.400 107.133,222.400 105.800 C 222.400 104.467,222.333 104.400,221.000 104.400 C 219.667 104.400,219.600 104.467,219.600 105.800 M291.600 116.200 C 291.600 117.533,291.667 117.600,293.000 117.600 C 294.333 117.600,294.400 117.533,294.400 116.200 C 294.400 114.867,294.333 114.800,293.000 114.800 C 291.667 114.800,291.600 114.867,291.600 116.200 M93.600 123.600 L 93.600 125.200 95.200 125.200 L 96.800 125.200 96.800 123.600 L 96.800 122.000 95.200 122.000 L 93.600 122.000 93.600 123.600 M98.400 126.228 C 98.400 127.596,100.132 127.481,100.328 126.100 C 100.432 125.367,100.265 125.200,99.428 125.200 C 98.591 125.200,98.400 125.391,98.400 126.228 M80.400 137.000 C 80.400 138.333,80.467 138.400,81.800 138.400 C 83.133 138.400,83.200 138.333,83.200 137.000 C 83.200 135.667,83.133 135.600,81.800 135.600 C 80.467 135.600,80.400 135.667,80.400 137.000 M224.000 137.000 C 224.000 138.613,225.001 138.925,226.138 137.669 C 227.274 136.413,226.984 135.600,225.400 135.600 C 224.067 135.600,224.000 135.667,224.000 137.000 M72.235 142.057 C 72.333 142.215,72.230 142.458,72.007 142.596 C 71.783 142.734,71.600 143.027,71.600 143.247 C 71.600 143.467,71.781 143.535,72.003 143.398 C 72.224 143.261,72.514 143.431,72.646 143.775 C 73.107 144.976,74.000 144.468,74.000 143.004 C 74.000 141.772,73.887 141.618,73.029 141.689 C 72.495 141.734,72.138 141.899,72.235 142.057 M327.600 144.600 C 327.600 145.933,327.667 146.000,329.000 146.000 C 330.601 146.000,331.048 144.660,329.600 144.200 C 329.160 144.060,328.800 143.778,328.800 143.573 C 328.800 143.368,328.530 143.200,328.200 143.200 C 327.781 143.200,327.600 143.622,327.600 144.600 M53.200 191.000 C 53.200 192.333,53.267 192.400,54.600 192.400 C 55.933 192.400,56.000 192.333,56.000 191.000 C 56.000 189.667,55.933 189.600,54.600 189.600 C 53.267 189.600,53.200 189.667,53.200 191.000 M237.600 194.200 C 237.600 195.533,237.667 195.600,239.000 195.600 C 240.333 195.600,240.400 195.533,240.400 194.200 C 240.400 192.867,240.333 192.800,239.000 192.800 C 237.667 192.800,237.600 192.867,237.600 194.200 M174.800 197.000 C 174.800 198.333,174.867 198.400,176.200 198.400 C 177.533 198.400,177.600 198.333,177.600 197.000 C 177.600 195.667,177.533 195.600,176.200 195.600 C 174.867 195.600,174.800 195.667,174.800 197.000 M341.377 208.721 C 341.426 209.061,341.857 209.367,342.334 209.402 C 343.242 209.469,343.384 209.266,342.894 208.600 C 342.416 207.950,341.277 208.040,341.377 208.721 M314.349 220.277 C 313.894 220.837,313.893 220.897,314.343 220.627 C 314.754 220.379,314.823 220.497,314.627 221.116 C 314.253 222.295,315.129 222.627,316.038 221.652 C 316.809 220.824,316.808 220.817,315.810 220.567 C 315.257 220.428,314.905 220.154,315.026 219.957 C 315.408 219.340,314.923 219.569,314.349 220.277 M234.000 234.200 C 234.000 235.322,234.280 235.417,235.300 234.643 C 236.304 233.881,236.163 233.200,235.000 233.200 C 234.200 233.200,234.000 233.400,234.000 234.200 M251.680 237.280 C 250.976 237.984,251.095 238.801,251.900 238.794 C 252.498 238.789,252.513 238.731,252.000 238.400 C 251.536 238.100,251.673 238.004,252.600 237.975 C 253.260 237.954,253.574 237.846,253.298 237.734 C 253.021 237.623,252.897 237.367,253.021 237.166 C 253.355 236.626,252.239 236.721,251.680 237.280 M98.400 248.000 C 98.400 249.562,98.433 249.600,99.800 249.600 C 101.167 249.600,101.200 249.562,101.200 248.000 C 101.200 246.438,101.167 246.400,99.800 246.400 C 98.433 246.400,98.400 246.438,98.400 248.000 M233.619 247.564 C 232.829 249.042,233.098 249.600,234.600 249.600 C 235.733 249.600,236.000 249.448,236.000 248.800 C 236.000 248.360,235.833 248.000,235.629 248.000 C 235.424 248.000,234.983 247.726,234.648 247.391 C 234.102 246.845,233.995 246.863,233.619 247.564 M206.000 249.400 C 206.000 251.027,206.748 251.252,208.000 250.000 C 208.622 249.378,208.667 249.200,208.200 249.200 C 207.870 249.200,207.600 248.930,207.600 248.600 C 207.600 248.267,207.244 248.000,206.800 248.000 C 206.152 248.000,206.000 248.267,206.000 249.400 M206.641 253.437 C 206.481 253.855,206.621 254.392,206.985 254.757 C 207.538 255.310,207.599 255.292,207.594 254.586 C 207.584 253.324,206.969 252.583,206.641 253.437 M80.617 253.516 C 80.288 253.845,80.812 254.400,81.452 254.400 C 81.785 254.400,82.315 254.142,82.630 253.827 C 83.128 253.329,83.046 253.258,82.008 253.287 C 81.350 253.306,80.724 253.409,80.617 253.516 M57.600 258.600 C 57.600 259.719,57.756 260.000,58.376 260.000 C 59.596 260.000,60.429 258.121,59.478 257.516 C 58.305 256.771,57.600 257.178,57.600 258.600 M242.000 257.800 C 242.000 258.330,242.753 258.607,243.730 258.437 C 243.911 258.406,243.944 258.568,243.802 258.797 C 243.661 259.026,243.377 259.109,243.172 258.983 C 242.968 258.856,242.800 258.933,242.800 259.153 C 242.800 259.980,243.425 259.884,244.125 258.950 C 244.615 258.297,244.680 258.019,244.325 258.092 C 244.036 258.151,243.845 257.975,243.900 257.700 C 243.959 257.407,243.587 257.200,243.000 257.200 C 242.378 257.200,242.000 257.427,242.000 257.800 M77.200 278.649 C 77.200 279.170,77.086 279.203,76.621 278.817 C 76.133 278.412,76.074 278.514,76.245 279.459 C 76.516 280.953,76.764 281.137,77.377 280.299 C 77.658 279.915,78.093 279.600,78.344 279.600 C 78.595 279.600,78.800 279.240,78.800 278.800 C 78.800 278.267,78.533 278.000,78.000 278.000 C 77.529 278.000,77.200 278.267,77.200 278.649 M304.800 279.400 C 304.800 280.767,304.838 280.800,306.400 280.800 C 307.962 280.800,308.000 280.767,308.000 279.400 C 308.000 278.033,307.962 278.000,306.400 278.000 C 304.838 278.000,304.800 278.033,304.800 279.400 M140.200 281.678 C 140.640 281.927,141.132 282.327,141.294 282.566 C 141.496 282.865,141.590 282.849,141.594 282.514 C 141.597 282.247,141.252 281.842,140.826 281.614 C 139.774 281.051,139.197 281.109,140.200 281.678 M139.376 282.588 C 140.317 283.329,140.926 283.380,140.702 282.700 C 140.611 282.425,140.101 282.150,139.569 282.088 C 138.631 281.980,138.625 281.996,139.376 282.588 M260.000 283.000 C 260.000 284.275,261.312 285.088,262.100 284.300 C 263.257 283.143,262.983 282.400,261.400 282.400 C 260.422 282.400,260.000 282.581,260.000 283.000 M111.672 290.890 C 111.797 291.760,111.965 291.810,114.200 291.644 C 115.759 291.529,114.803 290.000,113.172 290.000 C 111.718 290.000,111.558 290.095,111.672 290.890 M66.800 305.000 C 66.800 306.333,66.867 306.400,68.200 306.400 C 69.533 306.400,69.600 306.333,69.600 305.000 C 69.600 303.667,69.533 303.600,68.200 303.600 C 66.867 303.600,66.800 303.667,66.800 305.000 M322.800 311.000 C 322.800 312.367,322.838 312.400,324.400 312.400 C 325.962 312.400,326.000 312.367,326.000 311.000 C 326.000 309.633,325.962 309.600,324.400 309.600 C 322.838 309.600,322.800 309.633,322.800 311.000 M282.400 321.400 C 282.400 322.733,282.467 322.800,283.800 322.800 C 285.133 322.800,285.200 322.733,285.200 321.400 C 285.200 320.067,285.133 320.000,283.800 320.000 C 282.467 320.000,282.400 320.067,282.400 321.400 M201.600 327.400 C 201.600 328.733,201.667 328.800,203.000 328.800 C 204.333 328.800,204.400 328.733,204.400 327.400 C 204.400 326.067,204.333 326.000,203.000 326.000 C 201.667 326.000,201.600 326.067,201.600 327.400 M264.890 332.303 C 263.476 332.775,264.377 334.800,266.000 334.800 C 267.258 334.800,267.599 334.650,267.597 334.100 C 267.595 333.327,265.663 332.046,264.890 332.303 M269.200 341.000 C 269.200 342.333,269.267 342.400,270.600 342.400 C 271.933 342.400,272.000 342.333,272.000 341.000 C 272.000 339.667,271.933 339.600,270.600 339.600 C 269.267 339.600,269.200 339.667,269.200 341.000 M255.600 345.400 C 255.600 346.733,255.667 346.800,257.000 346.800 C 258.333 346.800,258.400 346.733,258.400 345.400 C 258.400 344.067,258.333 344.000,257.000 344.000 C 255.667 344.000,255.600 344.067,255.600 345.400 M286.800 347.000 C 286.800 348.367,286.838 348.400,288.400 348.400 C 289.962 348.400,290.000 348.367,290.000 347.000 C 290.000 345.633,289.962 345.600,288.400 345.600 C 286.838 345.600,286.800 345.633,286.800 347.000 M206.000 347.573 C 206.000 347.998,206.348 348.457,206.774 348.592 C 207.200 348.727,207.629 349.144,207.728 349.519 C 207.893 350.144,207.911 350.143,207.954 349.500 C 207.979 349.115,208.188 348.800,208.419 348.800 C 208.649 348.800,208.514 348.356,208.119 347.813 C 207.248 346.616,206.000 346.475,206.000 347.573 M161.206 355.900 C 161.209 356.725,161.344 357.203,161.506 356.962 C 161.668 356.720,162.295 356.402,162.900 356.254 C 164.643 355.827,164.412 354.400,162.600 354.400 C 161.248 354.400,161.200 354.451,161.206 355.900 M170.000 355.800 C 170.000 357.167,170.038 357.200,171.600 357.200 C 173.162 357.200,173.200 357.167,173.200 355.800 C 173.200 354.433,173.162 354.400,171.600 354.400 C 170.038 354.400,170.000 354.433,170.000 355.800 M174.800 358.800 C 174.800 360.362,174.833 360.400,176.200 360.400 C 177.567 360.400,177.600 360.362,177.600 358.800 C 177.600 357.238,177.567 357.200,176.200 357.200 C 174.833 357.200,174.800 357.238,174.800 358.800 M255.600 366.200 C 255.600 367.533,255.667 367.600,257.000 367.600 C 258.333 367.600,258.400 367.533,258.400 366.200 C 258.400 364.867,258.333 364.800,257.000 364.800 C 255.667 364.800,255.600 364.867,255.600 366.200 M147.600 372.200 C 147.600 373.533,147.667 373.600,149.000 373.600 C 150.333 373.600,150.400 373.533,150.400 372.200 C 150.400 370.867,150.333 370.800,149.000 370.800 C 147.667 370.800,147.600 370.867,147.600 372.200 M152.000 376.000 C 152.000 376.440,152.180 376.800,152.400 376.800 C 152.620 376.800,152.800 377.070,152.800 377.400 C 152.800 377.730,152.986 378.000,153.213 378.000 C 153.439 378.000,153.729 377.730,153.855 377.400 C 153.982 377.070,154.336 376.800,154.643 376.800 C 154.949 376.800,155.200 376.440,155.200 376.000 C 155.200 375.333,154.933 375.200,153.600 375.200 C 152.267 375.200,152.000 375.333,152.000 376.000 "
       stroke="none"
       fill="#fcfcfc"
       fill-rule="evenodd" />
    <path
       id="path1"
       d=""
       stroke="none"
       fill="#100fcfc"
       fill-rule="evenodd" />
    <path
       id="path2"
       d=""
       stroke="none"
       fill="#100fcfc"
       fill-rule="evenodd" />
    <path
       id="path3"
       d=""
       stroke="none"
       fill="#100fcfc"
       fill-rule="evenodd" />
    <path
       id="path4"
       d=""
       stroke="none"
       fill="#100fcfc"
       fill-rule="evenodd" />
  </g>
</svg>
