<?xml version="1.0" standalone="no"?>
<!DOCTYPE svg PUBLIC "-//W3C//DTD SVG 20010904//EN"
 "http://www.w3.org/TR/2001/REC-SVG-20010904/DTD/svg10.dtd">
<svg version="1.0" xmlns="http://www.w3.org/2000/svg"
 width="200.000000pt" height="200.000000pt" viewBox="0 0 200.000000 200.000000"
 preserveAspectRatio="xMidYMid meet">
<metadata>
Created by potrace 1.10, written by Peter Selinger 2001-2011
</metadata>
<g transform="translate(0.000000,200.000000) scale(0.050000,-0.050000)"
fill="#ffffff" stroke="none">
<path d="M2060 3085 c0 -540 -6 -695 -30 -773 -40 -130 -39 -533 0 -741 26
-132 48 -206 51 -169 0 4 13 80 29 168 35 192 39 596 7 715 -22 83 -21 88 40
149 48 48 63 55 64 29 0 -23 8 -18 27 17 24 45 48 200 84 538 6 60 19 154 27
209 17 106 2 188 -49 265 -17 26 -31 54 -32 63 0 8 -14 22 -30 31 -16 9 -24
24 -18 34 6 9 -19 41 -55 70 -36 30 -52 47 -37 39 19 -10 23 -7 14 8 -8 13
-32 23 -53 23 -38 0 -39 -20 -39 -675z"/>
<path d="M1910 3518 l-79 -88 86 -6 c106 -8 101 -13 85 94 l-12 88 -80 -88z"/>
<path d="M1340 3124 c-1184 -587 -1202 -2249 -32 -2822 1489 -730 2944 1068
1922 2374 -178 227 -607 532 -652 462 -39 -63 -20 -117 54 -148 416 -173 766
-692 801 -1187 80 -1123 -1113 -1894 -2110 -1363 -1054 562 -977 2128 127
2582 70 29 79 40 73 91 -10 89 -23 90 -183 11z"/>
<path d="M1810 2390 c-21 -33 -63 -92 -93 -132 l-55 -71 57 -305 c72 -386 81
-391 81 -53 0 245 5 284 42 344 35 57 39 82 24 172 l-17 105 -39 -60z"/>
<path d="M2273 2410 c-25 -65 -12 -176 28 -241 36 -59 40 -93 35 -341 -6 -284
-25 -343 -73 -223 -15 36 -31 54 -36 41 -9 -23 32 -210 65 -294 10 -27 8 -34
-8 -24 -16 9 -19 3 -12 -17 23 -59 -25 -31 -57 34 -43 85 -45 28 -5 -135 43
-179 40 -203 -29 -217 -71 -14 -122 -139 -85 -205 21 -38 62 24 65 98 1 30
186 175 268 210 194 83 594 53 662 -50 43 -66 19 -91 -78 -81 -78 8 -95 0
-261 -131 l-178 -139 -136 23 c-213 35 -231 32 -246 -41 -13 -68 -75 -42 -102
42 -6 21 -53 47 -121 65 l-110 31 -70 -125 c-67 -121 -73 -126 -164 -139 -162
-23 -230 -50 -204 -83 13 -15 31 -23 40 -17 20 12 199 -35 199 -53 0 -7 58
-20 130 -27 71 -8 135 -22 141 -33 22 -35 44 -18 90 69 98 185 320 255 439
138 26 -26 23 -27 -34 -16 -51 11 -67 6 -85 -28 -12 -22 -34 -41 -48 -41 -36
0 -133 -47 -133 -65 0 -23 29 -18 56 9 41 41 89 38 78 -5 -6 -22 -2 -39 8 -39
10 0 18 9 18 19 0 17 132 65 190 69 44 4 309 158 299 174 -6 10 -54 29 -105
42 -83 21 -88 25 -44 36 28 7 55 7 60 -1 31 -44 137 -40 173 7 21 26 47 44 60
40 12 -4 56 44 98 108 42 64 93 128 113 142 41 30 49 84 12 84 -19 0 -19 5 0
24 36 36 31 46 -53 102 -52 34 -86 45 -105 32 -47 -29 -138 -22 -138 12 0 29
-18 35 -120 38 -36 2 -50 13 -50 42 0 70 -105 67 -121 -4 -7 -31 -16 -69 -21
-86 -6 -24 -77 -78 -151 -115 -6 -4 -31 26 -54 65 l-43 72 45 60 c96 131 256
175 376 104 32 -19 65 -26 73 -17 9 9 5 20 -9 25 -74 27 -21 67 80 60 l105 -6
-7 -66 c-6 -65 -5 -66 60 -52 76 16 117 58 117 121 0 54 92 174 166 216 31 18
51 42 44 53 -20 33 -45 23 -56 -22 -6 -23 -21 -36 -33 -29 -34 22 -24 136 20
218 38 70 39 80 10 112 -17 19 -31 56 -32 83 0 44 -2 45 -22 11 -12 -21 -16
-71 -9 -113 8 -55 3 -82 -19 -101 -48 -40 -89 -130 -89 -197 0 -61 -7 -66
-135 -92 -35 -7 -83 -37 -106 -65 -39 -51 -41 -51 -52 -11 -27 106 -272 207
-362 149 -38 -23 49 -109 97 -97 21 6 38 2 38 -9 0 -11 9 -14 20 -7 11 7 20 2
20 -10 0 -12 9 -17 20 -10 11 7 20 -1 20 -18 0 -27 -8 -27 -70 -1 -45 19 -70
22 -70 8 0 -12 -9 -16 -20 -9 -12 7 -14 23 -6 36 9 17 4 17 -17 -1 -17 -13
-37 -19 -44 -11 -7 7 -13 -3 -13 -22 0 -26 -14 -33 -55 -28 -30 3 -55 11 -54
16 1 6 27 154 58 331 l57 321 -77 109 c-103 147 -102 146 -116 109z m-308
-1724 c32 -30 40 -30 56 -5 13 21 18 12 19 -36 l0 -65 -133 0 c-128 0 -132 1
-100 37 18 20 33 46 33 58 0 12 16 26 35 31 19 5 39 10 43 12 5 1 26 -13 47
-32z"/>
<path d="M685 1895 c8 -47 0 -77 -29 -109 l-40 -43 83 -42 c46 -24 91 -65 102
-92 10 -28 34 -56 54 -62 19 -7 64 -40 98 -75 138 -134 178 -155 281 -142 120
15 221 -39 239 -128 10 -54 14 -56 77 -37 66 21 200 7 218 -22 15 -24 -101
-156 -146 -168 -26 -7 -36 -2 -29 15 10 26 -88 70 -156 70 -46 0 -48 32 -4 56
47 27 15 64 -57 64 -34 0 -93 20 -132 44 l-70 43 13 -52 c7 -28 18 -66 25 -83
21 -54 -31 -36 -56 20 -21 44 -33 50 -85 38 -164 -35 -180 -33 -250 18 -83 63
-103 51 -45 -27 25 -34 34 -61 22 -65 -17 -6 28 -111 75 -174 3 -4 49 20 101
54 190 120 375 103 517 -49 l80 -86 97 29 c53 16 117 25 141 18 46 -11 104
136 141 359 15 90 -20 85 -40 -6 -17 -80 -73 -142 -102 -113 -16 16 -12 45 15
108 39 91 97 300 97 349 0 70 -65 20 -113 -88 -52 -115 -73 -136 -97 -97 -16
26 -162 26 -210 0 -32 -17 -40 -9 -60 51 -34 102 -98 137 -223 122 -89 -10
-110 -6 -160 37 -53 44 -170 90 -232 90 -14 0 -25 23 -25 51 0 66 -49 161 -92
177 -27 10 -31 2 -23 -53z"/>
<path d="M631 1621 c-7 -12 -2 -21 12 -21 19 0 20 -5 1 -24 -13 -13 -23 -38
-22 -55 1 -21 5 -23 11 -6 6 14 28 25 50 25 30 0 38 11 33 45 -6 47 -63 72
-85 36z"/>
<path d="M654 1488 c-33 -33 -12 -68 41 -67 50 2 149 32 125 39 -5 2 -23 6
-40 11 -16 4 -48 12 -71 19 -22 7 -47 6 -55 -2z"/>
<path d="M3242 1378 c-34 -33 -62 -78 -62 -98 0 -48 98 -163 101 -120 1 17 6
53 11 80 5 28 11 73 15 101 3 29 13 62 21 75 28 47 -26 23 -86 -38z"/>
<path d="M1351 858 c-104 -65 -115 -66 -296 -10 -91 29 -95 28 -95 -9 0 -21 9
-39 21 -39 31 0 139 -84 139 -109 1 -20 146 -151 168 -151 6 0 34 44 61 98 27
54 79 121 115 149 l66 52 -41 41 -41 40 -97 -62z"/>
</g>
</svg>
